<svg xmlns="http://www.w3.org/2000/svg">
    <path fill-rule="evenodd" clip-rule="evenodd"
        d="M16.8421 0H47.1579C51.6247 0 55.9086 1.98319 59.0671 5.51328C62.2256 9.04338 64 13.8312 64 18.8235H0C0 13.8312 1.77443 9.04338 4.93294 5.51328C8.09145 1.98319 12.3753 0 16.8421 0ZM47.1579 3.76471H16.8421C13.8548 3.76515 10.9522 4.87463 8.59021 6.91889C6.22827 8.96314 4.5408 11.8264 3.79284 15.0588H60.2072C59.4592 11.8264 57.7717 8.96314 55.4098 6.91889C53.0478 4.87463 50.1452 3.76515 47.1579 3.76471ZM64 45.1765C64 50.1688 62.2256 54.9566 59.0671 58.4867C55.9086 62.0168 51.6247 64 47.1579 64H16.8421C12.3753 64 8.09145 62.0168 4.93294 58.4867C1.77443 54.9566 0 50.1688 0 45.1765H64ZM16.8421 60.2353H47.1579C50.1452 60.2348 53.0478 59.1254 55.4098 57.0811C57.7717 55.0368 59.4592 52.1736 60.2072 48.9412H3.79284C5.28842 55.4353 10.5634 60.2353 16.8421 60.2353ZM35.3684 22.5882L42.1053 30.1176L48.8421 22.5882H57.2632C59.0499 22.5882 60.7634 23.3815 62.0268 24.7935C63.2902 26.2056 64 28.1207 64 30.1176V33.8823C64 35.8793 63.2902 37.7944 62.0268 39.2064C60.7634 40.6185 59.0499 41.4118 57.2632 41.4118H6.73684C4.95012 41.4118 3.23658 40.6185 1.97318 39.2064C0.709772 37.7944 0 35.8793 0 33.8823V30.1176C0 28.1207 0.709772 26.2056 1.97318 24.7935C3.23658 23.3815 4.95012 22.5882 6.73684 22.5882H35.3684ZM42.1053 35.4409L33.9739 26.3529H6.73684C5.84348 26.3529 4.98671 26.7496 4.35501 27.4556C3.72331 28.1616 3.36842 29.1192 3.36842 30.1176V33.8823C3.36842 34.8808 3.72331 35.8384 4.35501 36.5444C4.98671 37.2504 5.84348 37.6471 6.73684 37.6471H57.2632C58.1565 37.6471 59.0133 37.2504 59.645 36.5444C60.2767 35.8384 60.6316 34.8808 60.6316 33.8823V30.1176C60.6316 29.1192 60.2767 28.1616 59.645 27.4556C59.0133 26.7496 58.1565 26.3529 57.2632 26.3529H50.2366L42.1053 35.4409Z" />
</svg>