<svg width="64" height="64" viewBox="0 0 64 64" fill="none" xmlns="http://www.w3.org/2000/svg">
<path d="M45.3203 21.5702L44.6355 19.3163C43.7657 16.756 40.985 15.3857 38.4247 16.2556C36.9845 16.7449 35.8534 17.876 35.3641 19.3163L34.6793 21.5702C34.103 23.471 33.9821 25.4807 34.3262 27.4368C34.6401 29.0838 35.6857 30.4987 37.1678 31.2822L36.4009 48.4267C36.2982 49.3836 36.6086 50.339 37.2542 51.0528C38.6426 52.5715 40.9994 52.6771 42.5181 51.2887C42.6002 51.2136 42.6789 51.135 42.7539 51.0528C43.3851 50.3592 43.695 49.4319 43.6073 48.4982L42.8361 31.28C44.3162 30.4962 45.3601 29.0822 45.6734 27.4368C46.0175 25.4807 45.8966 23.471 45.3203 21.5702ZM43.5721 27.0656C43.3411 28.2488 42.4979 29.2196 41.3587 29.6139C40.9263 29.7764 40.6478 30.1988 40.6686 30.6603L41.4793 48.6667C41.5166 49.0199 41.4001 49.372 41.1593 49.6331C40.517 50.269 39.4826 50.269 38.8403 49.6331C38.5875 49.351 38.4727 48.9712 38.5267 48.5963L39.331 30.6603C39.3518 30.1988 39.0733 29.7764 38.6409 29.6139C37.5017 29.2196 36.6585 28.2488 36.4275 27.0656C36.1422 25.4416 36.2427 23.7732 36.7209 22.1952L37.4057 19.9403C37.9355 18.5076 39.5265 17.7758 40.9593 18.3056C41.7167 18.5858 42.3138 19.183 42.5939 19.9403L43.2787 22.1952C43.7563 23.7734 43.8569 25.4416 43.5721 27.0656Z" fill="#0078E7"/>
<path d="M28.8 16C28.2109 16 27.7333 16.4776 27.7333 17.0667V26.2251L24.8459 29.1125C24.6323 29.3253 24.5187 29.6188 24.5333 29.92L25.4667 48.5867C25.4889 48.9892 25.3428 49.3829 25.0635 49.6736C24.4796 50.2627 23.5287 50.2669 22.9395 49.6829C22.9363 49.6799 22.9332 49.6767 22.9301 49.6736C22.6507 49.3829 22.5047 48.9892 22.5269 48.5867L23.4667 29.92C23.4816 29.6189 23.3684 29.3256 23.1552 29.1125L20.2667 26.2251V17.0667C20.2667 16.4776 19.7891 16 19.2 16C18.6109 16 18.1333 16.4776 18.1333 17.0667V26.6667C18.1333 26.9496 18.2459 27.2208 18.4459 27.4208L21.3109 30.2869L20.4011 48.4832C20.3043 50.4708 21.8371 52.1607 23.8247 52.2575C25.8123 52.3543 27.5021 50.8215 27.5989 48.8339C27.6047 48.7171 27.6047 48.6001 27.5989 48.4833L26.6891 30.2871L29.5541 27.4209C29.7541 27.2209 29.8667 26.9497 29.8667 26.6668V17.0668C29.8667 16.4776 29.3891 16 28.8 16Z" fill="#0078E7"/>
<path d="M22.4002 16C21.8111 16 21.3335 16.4776 21.3335 17.0667V25.6C21.3335 26.1891 21.8111 26.6667 22.4002 26.6667C22.9893 26.6667 23.4669 26.1891 23.4669 25.6V17.0667C23.4669 16.4776 22.9893 16 22.4002 16Z" fill="#0078E7"/>
<path d="M25.5999 16C25.0108 16 24.5332 16.4776 24.5332 17.0667V25.6C24.5332 26.1891 25.0108 26.6667 25.5999 26.6667C26.189 26.6667 26.6666 26.1891 26.6666 25.6V17.0667C26.6666 16.4776 26.189 16 25.5999 16Z" fill="#0078E7"/>
<path d="M32 0C14.3269 0 0 14.3269 0 32C0 49.6731 14.3269 64 32 64C49.6731 64 64 49.6731 64 32C63.98 14.3352 49.6648 0.02 32 0ZM32 61.8667C15.5051 61.8667 2.13333 48.4949 2.13333 32C2.13333 15.5051 15.5051 2.13333 32 2.13333C48.4949 2.13333 61.8667 15.5051 61.8667 32C61.8479 48.4871 48.4871 61.8479 32 61.8667Z" fill="#0078E7"/>
<path d="M35.4625 52.0229C35.4053 51.4367 34.8836 51.0077 34.2972 51.0649C34.2835 51.0663 34.2697 51.0679 34.256 51.0697L34.2603 51.0687C32.7585 51.2431 31.2415 51.2431 29.7397 51.0687C29.1544 51 28.6244 51.4188 28.5557 52.0041C28.4871 52.5895 28.9059 53.1195 29.4912 53.1881C31.1567 53.3827 32.8391 53.3827 34.5045 53.1881C35.0908 53.1311 35.5197 52.6093 35.4625 52.0229Z" fill="#0078E7"/>
<path d="M48.32 18.2549C47.9414 17.8035 47.2686 17.7445 46.8173 18.1231C46.8158 18.1243 46.8144 18.1257 46.8128 18.1269C46.3625 18.5066 46.3052 19.1794 46.6848 19.6298C53.1161 27.2645 52.6241 38.5537 45.553 45.5999C45.1357 46.0158 45.1345 46.6914 45.5504 47.1087C45.9662 47.5261 46.6418 47.5273 47.0592 47.1114C54.9174 39.283 55.4654 26.7387 48.32 18.2549Z" fill="#0078E7"/>
<path d="M24.8508 14.0992C24.8503 14.0992 24.8498 14.0991 24.8493 14.0991C24.8485 14.0991 24.8476 14.0992 24.8467 14.0992H24.8508Z" fill="#0078E7"/>
<path d="M37.0314 11.263C32.8627 10.2639 28.4907 10.5324 24.4756 12.0342C23.9242 12.2415 23.6454 12.8567 23.8527 13.408C24.009 13.8236 24.4063 14.0987 24.8502 14.0991C24.9778 14.0984 25.1042 14.0751 25.2234 14.0299C28.8391 12.6778 32.7762 12.4363 36.53 13.3366C37.1027 13.475 37.6791 13.1231 37.8175 12.5504C37.9559 11.9778 37.604 11.4014 37.0314 11.263Z" fill="#0078E7"/>
<path d="M18.3988 45.5466C14.803 41.9569 12.7876 37.081 12.7999 32C12.7894 27.9405 14.0752 23.9837 16.4703 20.7061C16.8243 20.2352 16.7295 19.5665 16.2586 19.2125C15.7876 18.8585 15.119 18.9533 14.765 19.4243C14.7587 19.4327 14.7526 19.441 14.7466 19.4496C8.57947 27.928 9.48693 39.6308 16.8874 47.057C17.3044 47.4744 17.981 47.4746 18.3983 47.0576C18.8156 46.6405 18.8159 45.964 18.3988 45.5466Z" fill="#0078E7"/>
</svg>
