<svg width="79" height="84" viewBox="0 0 79 84" fill="none" xmlns="http://www.w3.org/2000/svg">
<path d="M70.3274 29.1208C69.975 28.4444 69.1413 28.1817 68.4648 28.5338L68.4646 28.534L62.1405 31.8217H62.1308L39.7244 43.4812L47.3189 19.4233C47.3189 19.4138 47.3299 19.4068 47.3326 19.3958L49.473 12.5746C49.6999 11.8476 49.2952 11.074 48.5685 10.8458C29.0595 4.55602 8.14521 15.2722 1.85527 34.7813C-4.43468 54.2904 6.28163 75.2046 25.7906 81.4945C25.9399 81.5426 26.0894 81.5898 26.2394 81.636C29.8699 82.7866 33.6553 83.3738 37.464 83.3773C53.6383 83.3318 67.9287 72.8373 72.8128 57.418C75.8022 48.0328 74.9072 37.8411 70.3274 29.1208ZM36.0887 45.83C35.8603 46.5576 36.2649 47.3326 36.9925 47.5611C37.341 47.6705 37.7184 47.6374 38.0426 47.4691L62.1143 34.9451C62.2206 35.1757 62.3339 35.4035 62.4333 35.6355C62.5713 35.9696 62.7094 36.3052 62.8474 36.6448C63.0256 37.1102 63.1858 37.5797 63.3363 38.0519C63.4509 38.411 63.5628 38.7714 63.6622 39.1331C63.7879 39.5957 63.8954 40.0624 63.9963 40.5305C64.0778 40.906 64.1607 41.2802 64.2256 41.6573C64.3056 42.1253 64.3637 42.5948 64.4189 43.0656C64.4644 43.4454 64.5142 43.8237 64.5431 44.2048C64.5791 44.6867 64.5873 45.1713 64.5969 45.6533C64.6052 46.0247 64.6232 46.3948 64.6149 46.7662C64.6052 47.2785 64.5611 47.7908 64.5224 48.3031C64.4948 48.6455 64.4824 48.9935 64.4437 49.3304C64.3746 49.9159 64.2684 50.4985 64.1675 51.0813C64.1191 51.3492 64.0889 51.6184 64.0294 51.8849C63.8472 52.7369 63.6277 53.586 63.3612 54.4284C61.2056 61.3208 56.3827 67.0648 49.9673 70.3809C49.4011 70.6764 48.8197 70.9235 48.2398 71.1763C34.4789 77.1772 18.4585 70.8866 12.4575 57.1255C7.22145 45.1187 11.2931 31.0852 22.1424 23.7453C23.0139 23.1499 23.9189 22.6048 24.853 22.1132C25.5849 21.7321 26.3319 21.3966 27.0844 21.0859C27.2156 21.0307 27.3468 20.9754 27.4793 20.923C28.2158 20.6349 28.9559 20.3784 29.6997 20.1539C29.8267 20.1152 29.9565 20.0834 30.0849 20.0475C30.814 19.8418 31.5472 19.6623 32.2873 19.5201C32.3454 19.5089 32.4033 19.4938 32.4626 19.4828C33.236 19.3447 34.0161 19.237 34.799 19.161L35.2547 19.1196C36.0279 19.0588 36.804 19.0257 37.5814 19.0326C37.7015 19.0326 37.8202 19.0409 37.939 19.0437C38.6363 19.0574 39.335 19.1016 40.0323 19.1707C40.1925 19.1859 40.3513 19.1984 40.5115 19.2163C41.2819 19.3083 42.0516 19.4316 42.8202 19.5863C42.9817 19.6195 43.1433 19.6609 43.3048 19.6968C43.6238 19.7686 43.9414 19.8639 44.2604 19.9468L36.0887 45.83ZM70.1713 56.5825C64.4571 74.6783 45.1553 84.7156 27.0596 79.0014C18.376 76.2596 11.1359 70.1826 6.9301 62.1056C-1.85739 45.3068 4.63709 24.5653 21.4357 15.7779C29.1227 11.7568 38.0472 10.7954 46.4144 13.0868L45.1 17.2804C44.8155 17.2044 44.5282 17.1603 44.2424 17.094C43.8281 16.9945 43.4043 16.9006 42.9831 16.8178C42.4681 16.7197 41.9544 16.641 41.438 16.5707C41.003 16.5099 40.5694 16.4505 40.1345 16.4105C39.6222 16.3621 39.1127 16.3387 38.6018 16.3166C38.1641 16.2986 37.7277 16.2779 37.2913 16.2779C36.7763 16.2779 36.264 16.3083 35.7504 16.3373C35.3196 16.3608 34.8916 16.3759 34.4635 16.4187C33.9388 16.4698 33.4169 16.5568 32.8963 16.6341C32.482 16.6963 32.0677 16.7474 31.6619 16.8275C31.1206 16.9352 30.5848 17.0774 30.0476 17.2141C29.6652 17.3121 29.28 17.3935 28.9002 17.5068C28.3271 17.678 27.7625 17.8893 27.1963 18.0964C26.8621 18.218 26.5239 18.3187 26.1938 18.4541C25.5034 18.7303 24.8338 19.0561 24.1627 19.3875C23.9679 19.4841 23.7664 19.5587 23.5731 19.6637C22.7707 20.0779 22.0016 20.5405 21.2491 21.0196C8.20269 29.3561 3.66672 46.2659 10.7895 60.0124C10.8005 60.0345 10.8088 60.0566 10.8198 60.0773C10.8475 60.1298 10.882 60.1767 10.9082 60.2291C14.5688 67.2219 20.8582 72.4733 28.392 74.8271C28.4334 74.8408 28.4749 74.8478 28.515 74.8602C29.3323 75.1143 30.1554 75.3256 30.9825 75.5078C31.2807 75.5741 31.5804 75.6252 31.88 75.6831C32.4668 75.7937 33.0551 75.8903 33.6447 75.9593C33.9733 76.0008 34.3006 76.0408 34.6292 76.0726C35.2437 76.1305 35.8581 76.165 36.4726 76.1844C36.7488 76.1941 37.0248 76.2148 37.29 76.2162C37.3397 76.2162 37.3895 76.2162 37.4391 76.2162C38.1931 76.2162 38.9456 76.1776 39.6953 76.1195C39.9232 76.1015 40.1497 76.0808 40.3761 76.0573C41.188 75.9773 41.9972 75.8723 42.7995 75.7246C42.9375 75.6998 43.0756 75.6653 43.2137 75.6376C43.9428 75.4995 44.6663 75.3173 45.3857 75.117C45.5749 75.0645 45.764 75.0163 45.9518 74.9597C46.7471 74.7221 47.5329 74.4474 48.3117 74.1422C48.4856 74.0732 48.6568 74.0041 48.8294 73.9295C49.6442 73.5912 50.4519 73.2295 51.2431 72.8249C58.3041 69.1734 63.6116 62.8495 65.9833 55.2624C66.0247 55.1326 66.0482 55 66.0869 54.8702C66.3285 54.0708 66.5467 53.2698 66.7193 52.4621C66.7869 52.1445 66.8242 51.8255 66.8808 51.5065C66.9941 50.8797 67.1101 50.2541 67.1832 49.6245C67.2246 49.2655 67.2357 48.9065 67.2647 48.5462C67.3102 47.9565 67.36 47.3682 67.371 46.78C67.3793 46.3989 67.3586 46.0192 67.3517 45.6381C67.3406 45.0733 67.331 44.5087 67.2868 43.9453C67.2564 43.549 67.2012 43.1554 67.1556 42.7605C67.0907 42.2178 67.0257 41.678 66.9333 41.1394C66.8615 40.7251 66.769 40.3248 66.6806 39.9174C66.5674 39.4024 66.4514 38.8888 66.312 38.3778C66.196 37.9636 66.0621 37.541 65.9281 37.124C65.772 36.6407 65.6105 36.1575 65.4296 35.6824C65.2653 35.2489 65.0844 34.8195 64.8994 34.3913C64.7931 34.147 64.7102 33.897 64.5969 33.6541L68.4922 31.627C72.1963 39.4317 72.7965 48.3521 70.1713 56.5825Z" fill="#1B91FF"/>
<path d="M78.8481 19.0519C74.3698 10.2572 66.5376 3.63729 57.1196 0.68701C56.3924 0.45814 55.6175 0.861682 55.3882 1.58868L53.2188 8.46651L44.5294 36.0082C44.3613 36.5419 44.532 37.1242 44.9617 37.4829C45.3913 37.8416 45.9949 37.9054 46.4902 37.6445L71.9109 24.2505L78.2626 20.9021C78.9315 20.5496 79.1925 19.7249 78.8481 19.0519ZM56.2028 14.3295C57.3467 14.3295 58.2741 15.2568 58.2741 16.4006C58.2741 17.5445 57.3467 18.4718 56.2028 18.4718C55.0589 18.4718 54.1316 17.5445 54.1316 16.4006C54.1316 15.2568 55.0589 14.3295 56.2028 14.3295ZM48.1747 33.636L50.0223 27.7771C50.1231 29.2972 50.9374 30.68 52.2178 31.5053L48.1747 33.636ZM54.8221 29.5183C53.6781 29.5183 52.7508 28.591 52.7508 27.4471C52.7508 26.3033 53.6781 25.376 54.8221 25.376C55.9659 25.376 56.8932 26.3033 56.8932 27.4471C56.8932 28.5912 55.9659 29.5183 54.8221 29.5183ZM59.6562 27.5935C59.6562 27.5424 59.6714 27.4955 59.6714 27.4444C59.6835 24.7867 57.5387 22.6226 54.8812 22.6106C53.408 22.6038 52.013 23.2723 51.0952 24.4245L52.6044 19.5944C54.3637 21.6087 57.4227 21.8155 59.4371 20.0563C61.4514 18.297 61.6582 15.238 59.899 13.2236C58.7083 11.8602 56.8565 11.2747 55.0984 11.7059L55.4242 10.6772C55.6589 10.7642 55.8979 10.8443 56.1298 10.9382C56.4474 11.0666 56.7635 11.1964 57.0743 11.3358C57.5493 11.5485 58.0133 11.7791 58.4731 12.018C58.7602 12.1671 59.0516 12.3121 59.3333 12.4722C59.8221 12.7484 60.2999 13.0494 60.7652 13.356C60.9943 13.5051 61.2306 13.6431 61.4556 13.8006C62.1193 14.2609 62.7637 14.7519 63.3888 15.2739L63.4411 15.314C64.0764 15.8511 64.6839 16.4186 65.2652 17.0192C65.4517 17.2098 65.6243 17.417 65.8065 17.613C66.1918 18.0273 66.5714 18.454 66.9319 18.8971C67.1335 19.1458 67.3227 19.4053 67.516 19.6622C67.8322 20.0763 68.1402 20.5045 68.4329 20.9422C68.6206 21.2184 68.8015 21.5124 68.9851 21.8024C69.1232 22.022 69.2434 22.2511 69.3732 22.4748L59.6562 27.5935ZM71.8308 21.1741C71.6789 20.9076 71.5022 20.6604 71.3421 20.3995C71.1418 20.0722 70.9402 19.7449 70.7276 19.4329C70.4086 18.9537 70.0703 18.4912 69.7252 18.0341C69.5083 17.7455 69.297 17.4515 69.0692 17.1726C68.6757 16.6865 68.2587 16.2253 67.8376 15.7668C67.6319 15.5445 67.4384 15.3111 67.2259 15.0944C66.5866 14.4426 65.9238 13.8172 65.2279 13.2275L65.207 13.2082C64.5043 12.6145 63.7697 12.058 63.013 11.5319C62.7658 11.3607 62.5049 11.2102 62.2535 11.0459C61.7316 10.7048 61.2055 10.3706 60.6615 10.0627C60.3494 9.88736 60.0277 9.72995 59.7087 9.56425C59.1992 9.30052 58.6869 9.04507 58.1608 8.80895C57.8143 8.65568 57.4635 8.51345 57.11 8.37261C56.8242 8.258 56.5494 8.12406 56.2594 8.01775L57.6016 3.75518C65.3053 6.51628 71.7506 11.9705 75.7482 19.1112L71.8308 21.1741Z" fill="#1B91FF"/>
<path d="M31.3485 22.6144C28.6793 22.6144 26.5156 24.778 26.5156 27.4472C26.5156 30.1163 28.6793 32.28 31.3485 32.28C34.0175 32.28 36.1813 30.1163 36.1813 27.4472C36.1813 24.778 34.0175 22.6144 31.3485 22.6144ZM31.3485 29.5184C30.2045 29.5184 29.2772 28.591 29.2772 27.4472C29.2772 26.3034 30.2045 25.3759 31.3485 25.3759C32.4923 25.3759 33.4196 26.3034 33.4196 27.4472C33.4196 28.5912 32.4923 29.5184 31.3485 29.5184Z" fill="#1B91FF"/>
<path d="M17.5404 35.0416C14.8713 35.0416 12.7075 37.2054 12.7075 39.8745C12.7075 42.5437 14.8713 44.7074 17.5404 44.7074C20.2094 44.7074 22.3732 42.5437 22.3732 39.8745C22.3732 37.2054 20.2094 35.0416 17.5404 35.0416ZM17.5404 41.9458C16.3965 41.9458 15.469 41.0184 15.469 39.8745C15.469 38.7306 16.3965 37.8033 17.5404 37.8033C18.6842 37.8033 19.6115 38.7306 19.6115 39.8745C19.6115 41.0185 18.6842 41.9458 17.5404 41.9458Z" fill="#1B91FF"/>
<path d="M31.3485 35.0416C28.6793 35.0416 26.5156 37.2054 26.5156 39.8745C26.5156 42.5437 28.6793 44.7074 31.3485 44.7074C34.0175 44.7074 36.1813 42.5437 36.1813 39.8745C36.1813 37.2054 34.0175 35.0416 31.3485 35.0416ZM31.3485 41.9458C30.2045 41.9458 29.2772 41.0184 29.2772 39.8745C29.2772 38.7306 30.2045 37.8033 31.3485 37.8033C32.4923 37.8033 33.4196 38.7306 33.4196 39.8745C33.4196 41.0185 32.4923 41.9458 31.3485 41.9458Z" fill="#1B91FF"/>
<path d="M45.1566 59.8964C42.4875 59.8964 40.3237 62.0601 40.3237 64.7292C40.3237 67.3983 42.4875 69.562 45.1566 69.562C47.8258 69.562 49.9895 67.3983 49.9895 64.7292C49.9895 62.0601 47.8258 59.8964 45.1566 59.8964ZM45.1566 66.8004C44.0128 66.8004 43.0854 65.873 43.0854 64.7292C43.0854 63.5854 44.0128 62.658 45.1566 62.658C46.3005 62.658 47.2279 63.5854 47.2279 64.7292C47.2279 65.8731 46.3005 66.8004 45.1566 66.8004Z" fill="#1B91FF"/>
<path d="M54.8222 50.2307C52.153 50.2307 49.9893 52.3943 49.9893 55.0635C49.9893 57.7326 52.153 59.8964 54.8222 59.8964C57.4913 59.8964 59.6551 57.7326 59.6551 55.0635C59.6551 52.3943 57.4913 50.2307 54.8222 50.2307ZM54.8222 57.1347C53.6783 57.1347 52.7509 56.2074 52.7509 55.0635C52.7509 53.9197 53.6783 52.9922 54.8222 52.9922C55.966 52.9922 56.8934 53.9197 56.8934 55.0635C56.8934 56.2075 55.966 57.1347 54.8222 57.1347Z" fill="#1B91FF"/>
<path d="M58.9644 39.1842C56.2953 39.1842 54.1316 41.3478 54.1316 44.017C54.1316 46.6861 56.2953 48.8499 58.9644 48.8499C61.6336 48.8499 63.7973 46.6861 63.7973 44.017C63.7973 41.3478 61.6336 39.1842 58.9644 39.1842ZM58.9644 46.0882C57.8206 46.0882 56.8932 45.1609 56.8932 44.017C56.8932 42.8732 57.8206 41.9457 58.9644 41.9457C60.1082 41.9457 61.0357 42.8732 61.0357 44.017C61.0357 45.161 60.1082 46.0882 58.9644 46.0882Z" fill="#1B91FF"/>
<path d="M18.9212 48.8499C16.252 48.8499 14.0884 51.0136 14.0884 53.6827C14.0884 56.3518 16.252 58.5155 18.9212 58.5155C21.5903 58.5155 23.754 56.3518 23.754 53.6827C23.754 51.0136 21.5903 48.8499 18.9212 48.8499ZM18.9212 55.7539C17.7774 55.7539 16.8499 54.8265 16.8499 53.6827C16.8499 52.5389 17.7774 51.6115 18.9212 51.6115C20.065 51.6115 20.9924 52.5389 20.9924 53.6827C20.9924 54.8266 20.065 55.7539 18.9212 55.7539Z" fill="#1B91FF"/>
<path d="M41.014 47.4691C38.3449 47.4691 36.1812 49.6329 36.1812 52.302C36.1812 54.971 38.3449 57.1348 41.014 57.1348C43.6831 57.1348 45.8468 54.971 45.8468 52.302C45.8468 49.6329 43.6831 47.4691 41.014 47.4691ZM41.014 54.3733C39.8702 54.3733 38.9427 53.4458 38.9427 52.302C38.9427 51.1581 39.8702 50.2308 41.014 50.2308C42.1578 50.2308 43.0852 51.1581 43.0852 52.302C43.0852 53.446 42.1578 54.3733 41.014 54.3733Z" fill="#1B91FF"/>
<path d="M28.5867 59.8964C25.9177 59.8964 23.7539 62.0601 23.7539 64.7292C23.7539 67.3983 25.9177 69.562 28.5867 69.562C31.2558 69.562 33.4196 67.3983 33.4196 64.7292C33.4196 62.0601 31.2558 59.8964 28.5867 59.8964ZM28.5867 66.8004C27.4429 66.8004 26.5156 65.873 26.5156 64.7292C26.5156 63.5854 27.4429 62.658 28.5867 62.658C29.7306 62.658 30.6579 63.5854 30.6579 64.7292C30.6579 65.8731 29.7306 66.8004 28.5867 66.8004Z" fill="#1B91FF"/>
<path d="M20.9924 29.5186C20.2299 29.5186 19.6116 30.1369 19.6116 30.8994C19.6116 31.662 20.2299 32.2802 20.9924 32.2802C21.7549 32.2802 22.3732 32.8985 22.3732 33.661C22.3732 34.4237 22.9914 35.0419 23.7541 35.0419C24.5166 35.0419 25.1349 34.4237 25.1349 33.661C25.1349 31.3734 23.2803 29.5186 20.9924 29.5186Z" fill="#1B91FF"/>
<path d="M38.9429 58.5156C36.6551 58.5156 34.8005 60.3702 34.8005 62.6581C34.8005 63.4206 35.4187 64.0389 36.1814 64.0389C36.9439 64.0389 37.5622 63.4206 37.5622 62.6581C37.5622 61.8955 38.1804 61.2773 38.9429 61.2773C39.7055 61.2773 40.3237 60.659 40.3237 59.8964C40.3237 59.1339 39.7055 58.5156 38.9429 58.5156Z" fill="#1B91FF"/>
<path d="M41.8724 21.6374C41.3328 21.0982 40.4584 21.0986 39.9192 21.6382C39.3731 22.1603 38.5128 22.1603 37.9668 21.6382C37.4274 21.0986 36.5531 21.0982 36.0135 21.6374C35.4739 22.1768 35.4737 23.0511 36.0129 23.5907C37.6302 25.2089 40.2528 25.2097 41.8712 23.5925C41.8718 23.5918 41.8724 23.5913 41.873 23.5907C42.4122 23.0511 42.4119 22.1768 41.8724 21.6374Z" fill="#1B91FF"/>
<path d="M51.3701 44.7074C49.0824 44.7074 47.2278 46.5619 47.2278 48.8498C47.2278 49.6123 47.846 50.2306 48.6086 50.2306C49.3711 50.2306 49.9894 49.6123 49.9894 48.8498C49.9894 48.0873 50.6076 47.4689 51.3701 47.4689C52.1328 47.4689 52.751 46.8507 52.751 46.0881C52.751 45.3256 52.1328 44.7074 51.3701 44.7074Z" fill="#1B91FF"/>
<path d="M30.2553 47.3011C30.2546 47.3005 30.2541 47.2999 30.2533 47.2992C29.7139 46.76 28.8394 46.7604 28.3002 47.2999C27.761 47.8394 27.7614 48.7139 28.3009 49.2531C28.8399 49.7923 28.8399 50.6664 28.3009 51.2055C27.761 51.7441 27.7599 52.6184 28.2985 53.1583C28.2988 53.1587 28.2992 53.1591 28.2996 53.1593C28.8384 53.6989 29.7129 53.6994 30.2523 53.1604C30.2527 53.1601 30.2531 53.1597 30.2533 53.1593C31.8717 51.5423 31.8724 48.9195 30.2553 47.3011Z" fill="#1B91FF"/>
<path d="M63.7974 18.472C63.0349 18.472 62.4166 19.0902 62.4166 19.8527C62.4166 20.6154 61.7984 21.2336 61.0359 21.2336C60.2732 21.2336 59.655 21.8519 59.655 22.6144C59.655 23.377 60.2732 23.9952 61.0359 23.9952C63.3236 23.9952 65.1782 22.1406 65.1782 19.8527C65.1782 19.0902 64.56 18.472 63.7974 18.472Z" fill="#1B91FF"/>
</svg>
